# xmcd
#
# Track frame offsets:
#	150
#	17575
#	38285
#	59467
#	75326
#	94344
#	112965
#	132792
#	151537
#	167846
#	190851
#	208396
#	229083
#	251982
#	267680
#	283038
#	298051
#	315929
#
# Disc length: 4405 seconds
#
# Revision: 1
# Processed by: cddbd v1.5.2PL0 Copyright (c) Steve Scherf et al.
# Submitted via: audiograbber 1.83.01
#
DISCID=f6113312
DTITLE=Любовь Успенская - Золотая коллекция шансона
DYEAR=2007
DGENRE=Шансон
TTITLE0=Кабриолет
TTITLE1=Карусель
TTITLE2=Кривые зеркала
TTITLE3=Монте-Карло
TTITLE4=Прабабушка
TTITLE5=Банкет
TTITLE6=Пропади ты пропадом
TTITLE7=Хулиганка
TTITLE8=Джигярь
TTITLE9=Россия
TTITLE10=Ещё не поздно
TTITLE11=Найди себя
TTITLE12=Гусарская рулетка
TTITLE13=Прости меня, мама
TTITLE14=Люба-Любонька
TTITLE15=Любимый
TTITLE16=Калина
TTITLE17=Я милого узнаю по походке
EXTD=
EXTT0=
EXTT1=
EXTT2=
EXTT3=
EXTT4=
EXTT5=
EXTT6=
EXTT7=
EXTT8=
EXTT9=
EXTT10=
EXTT11=
EXTT12=
EXTT13=
EXTT14=
EXTT15=
EXTT16=
EXTT17=
PLAYORDER=
